<?xml version="1.0" encoding="UTF-8" standalone="no"?>
<svg
   xmlns:dc="http://purl.org/dc/elements/1.1/"
   xmlns:cc="http://creativecommons.org/ns#"
   xmlns:rdf="http://www.w3.org/1999/02/22-rdf-syntax-ns#"
   xmlns:svg="http://www.w3.org/2000/svg"
   xmlns="http://www.w3.org/2000/svg"
   id="svg8"
   version="1.1"
   viewBox="0 0 127.339 36.201725"
   height="36.201725mm"
   width="127.339mm">
  <defs
     id="defs2" />
  <metadata
     id="metadata5">
    <rdf:RDF>
      <cc:Work
         rdf:about="">
        <dc:format>image/svg+xml</dc:format>
        <dc:type
           rdf:resource="http://purl.org/dc/dcmitype/StillImage" />
        <dc:title></dc:title>
      </cc:Work>
    </rdf:RDF>
  </metadata>
  <g
     transform="translate(-20.228089,-73.285627)"
     id="layer1">
    <g
       transform="translate(-48.24215,-37.685003)"
       id="g101">
      <path
         style="fill:#f7ac3b;fill-opacity:1;stroke-width:0.0846667"
         d="m 119.47634,123.94572 c -0.33085,-1.50057 -0.84771,-2.50672 -1.81008,-3.52359 -0.85367,-0.90201 -2.09341,-1.64366 -3.25119,-1.94496 -0.27228,-0.0709 -0.51124,-0.14502 -0.53103,-0.16481 -0.0198,-0.0198 0.22204,-0.18436 0.53739,-0.36572 0.78634,-0.45224 1.84709,-1.52364 2.33984,-2.36335 0.21809,-0.37165 0.51633,-1.03769 0.66275,-1.48007 0.24428,-0.73804 0.2668,-0.90028 0.27316,-1.96842 0.004,-0.64025 0.0289,-1.16413 0.0557,-1.16417 0.0268,-4e-5 0.14111,0.0993 0.254,0.22076 0.26818,0.28853 1.1207,0.89315 1.60064,1.13521 1.17602,0.59312 2.64587,0.85614 3.8721,0.69288 0.74503,-0.0992 1.68758,-0.37375 2.20931,-0.64354 0.14862,-0.0768 0.27021,-0.10602 0.27021,-0.0648 0,0.0412 -0.12814,0.3565 -0.28477,0.70067 -1.07717,2.36703 -0.65355,5.28043 1.04869,7.21227 0.19669,0.22322 0.34116,0.4223 0.32105,0.44241 -0.0201,0.0201 -0.28197,-0.004 -0.58193,-0.0536 -1.40143,-0.23175 -3.32827,0.23953 -4.65171,1.13774 -0.60453,0.41029 -1.4883,1.30304 -1.87019,1.88919 -0.19307,0.29633 -0.36488,0.53878 -0.3818,0.53878 -0.0169,0 -0.0539,-0.10478 -0.0821,-0.23284 z"
         id="path94" />
      <path
         id="path92"
         style="fill:#00a39d;fill-opacity:1;stroke-width:0.32"
         d="m 596.33789,491.46289 c -2.55356,-0.1161 -5.12825,0.53918 -6.76172,1.89258 -1.84112,1.52545 -2.59179,3.23363 -2.59179,5.90039 -0.002,4.05611 1.58509,5.75986 7.00195,7.51953 4.54189,1.47545 5.92114,2.62158 5.91797,4.92188 -0.002,1.78903 -0.98479,3.29541 -2.64453,4.04882 -2.40877,1.09346 -4.85784,0.7204 -7.58594,-1.15625 -1.90235,-1.30862 -2.53293,-1.24555 -3.38672,0.33985 -0.59225,1.09946 -0.59342,1.10324 0.17383,1.91992 1.01268,1.07796 3.7145,2.38067 5.65234,2.72461 h 0.002 c 4.47553,0.79423 8.65437,-0.80328 10.54493,-4.0293 1.26731,-2.16253 1.44633,-5.76152 0.38867,-7.80859 -0.92542,-1.7912 -2.4805,-2.84141 -6.08594,-4.11133 -4.11292,-1.44866 -5.319,-2.14673 -5.93359,-3.43555 -0.47974,-1.0058 -0.486,-1.25725 -0.0684,-2.43945 0.65922,-1.86591 1.79495,-2.59788 4.27734,-2.75586 1.82623,-0.1163 2.25455,-0.0187 3.98633,0.9043 1.06685,0.56851 2.16103,0.94964 2.43164,0.8457 0.27046,-0.10379 0.72933,-0.69172 1.02148,-1.30469 0.659,-1.38198 0.40834,-1.75499 -1.97265,-2.91992 -1.30873,-0.6403 -2.83505,-0.98698 -4.36719,-1.05664 z m 59.24805,0.21289 v 13.95117 13.94922 h 1.91992 1.91992 v -5.77539 -5.77539 l 1.99414,0.0957 1.99414,0.0957 3.63477,4.95898 c 1.99899,2.72799 3.83642,5.24364 4.08398,5.58984 0.35705,0.49962 0.92225,0.65697 2.74024,0.75977 1.99468,0.11271 2.26616,0.0629 2.0957,-0.38086 -0.2448,-0.63795 -7.83822,-11.01076 -8.24414,-11.26172 -0.57449,-0.35508 -0.28707,-0.68857 0.90234,-1.04687 2.93877,-0.88558 4.94816,-3.79645 4.97461,-7.20313 0.0272,-3.59406 -1.18981,-5.52197 -4.41601,-6.99414 -1.44601,-0.66005 -2.17705,-0.74063 -7.59961,-0.8457 z m -180.80078,0.002 v 13.98633 13.98438 l 6.48046,-0.1543 c 7.25711,-0.17219 8.52855,-0.44838 10.73829,-2.33984 1.73975,-1.48914 2.41069,-3.31743 2.25195,-6.12891 -0.157,-2.77863 -0.9791,-4.02365 -3.38477,-5.125 l -1.73047,-0.79297 0.90235,-0.4668 c 2.28892,-1.18427 3.4053,-3.00266 3.40625,-5.54492 10e-4,-3.3823 -1.06999,-5.06917 -4.10352,-6.45898 -1.46668,-0.67174 -2.14009,-0.74252 -8.08008,-0.8457 z m 50.88086,0.0215 v 13.9375 13.93945 h 1.75976 1.75977 v -10.43359 -10.4336 l 7.68164,10.03321 c 4.22453,5.51833 8.00295,10.21236 8.39843,10.42969 0.39549,0.21743 1.18778,0.39586 1.75977,0.39843 l 1.04102,0.004 V 505.6543 491.73438 h -1.75586 -1.75586 L 544.4707,502 l -0.084,10.26758 -7.83984,-10.1875 -7.8418,-10.18555 -1.51953,-0.0976 z m -14.21485,0.01 -2.07617,0.0937 -2.07617,0.0918 -5.37695,13.43555 c -2.95696,7.38916 -5.375,13.61685 -5.375,13.83984 0,0.56228 2.87497,0.53161 3.6875,-0.0391 0.35123,-0.24665 1.19802,-1.94978 1.9082,-3.83984 l 1.27539,-3.39649 h 5.98047 5.98047 l 1.32031,3.44141 c 0.72593,1.89199 1.55499,3.61987 1.84375,3.83984 0.28872,0.22008 1.30461,0.39844 2.25781,0.39844 1.5168,0 1.70845,-0.069 1.5293,-0.5586 -0.11271,-0.30799 -2.6061,-6.57836 -5.54102,-13.93359 z m 129.63867,0 -2.10156,0.0937 -2.10351,0.0937 -5.36329,13.43946 c -2.95026,7.392 -5.36596,13.61987 -5.36914,13.83984 -0.008,0.55831 2.87536,0.52326 3.68164,-0.0449 0.34965,-0.24643 1.20307,-1.96024 1.91211,-3.8418 l 1.2793,-3.39648 6.0332,0.082 6.03125,0.082 1.26758,3.35938 c 0.69698,1.848 1.50182,3.53979 1.78906,3.75976 0.2871,0.22008 1.30071,0.40039 2.25391,0.40039 1.51699,0 1.70794,-0.0705 1.52539,-0.56055 -0.11471,-0.30799 -2.59885,-6.57622 -5.52148,-13.93164 z m 62.38868,0 -2.09375,0.0937 -2.09375,0.0937 -5.36914,13.43946 c -2.95363,7.392 -5.37305,13.61987 -5.37305,13.83984 -0.004,0.55812 2.87949,0.52314 3.68555,-0.0449 0.34964,-0.24643 1.20307,-1.96027 1.9121,-3.8418 l 1.2793,-3.39648 6.03125,0.082 6.0332,0.082 1.26758,3.35938 c 0.69699,1.848 1.50182,3.53979 1.78907,3.75976 0.28709,0.22008 1.3007,0.40039 2.2539,0.40039 1.51786,0 1.70719,-0.0706 1.52539,-0.56055 -0.11425,-0.30803 -2.60116,-6.57821 -5.52734,-13.93359 z m -148.69336,0.0274 v 13.91992 13.91992 h 2.08007 2.08008 v -6.40039 -6.40039 h 0.7793 c 1.59583,0 2.41539,0.71246 7.33203,6.36523 2.76798,3.18241 5.30689,5.93256 5.64063,6.11133 0.61595,0.32996 4.48828,0.46428 4.48828,0.15625 0,-0.20768 -9.60927,-11.71266 -11.12891,-13.32422 l -1.10547,-1.17187 5.55664,-6.27734 c 3.05658,-3.45283 5.60548,-6.41706 5.66407,-6.58789 0.0618,-0.17991 -0.77657,-0.31055 -1.99415,-0.31055 -2.5189,0 -2.29615,-0.17582 -7.875,6.24023 -4.72773,5.43712 -4.90987,5.59961 -6.27148,5.59961 h -1.08594 v -5.91992 -5.91992 h -2.08008 z m 52.27148,0 c -1.1167,0 -2.03125,0.0693 -2.03125,0.15429 0,0.0852 2.23295,3.81501 4.96094,8.28907 l 4.95898,8.13476 v 5.63086 5.63086 h 2.08008 2.08008 v -5.5332 -5.53125 l 4.96094,-8.13477 c 2.72802,-4.47405 4.95898,-8.24958 4.95898,-8.38867 0,-0.41405 -3.67389,-0.28507 -4.23047,0.14844 -0.28244,0.22001 -2.18149,3.26762 -4.2207,6.77344 -2.03917,3.50581 -3.70899,6.17951 -3.70899,5.9414 0,-0.46548 -6.48053,-11.62447 -7.29101,-12.55468 -0.36881,-0.42316 -0.98309,-0.56055 -2.51758,-0.56055 z m 73.49024,0 v 13.91992 13.91992 h 2.07812 2.08008 V 505.65625 491.73633 H 682.625 Z m 37.11914,0 v 13.91992 13.91992 h 1.91992 1.91992 v -6.24023 -6.24024 h 7.35937 7.36133 v 6.24024 6.24023 h 1.91992 1.91993 V 505.6566 491.73668 h -1.91993 -1.91992 v 6.08008 6.08007 h -7.36133 -7.35937 v -6.08007 -6.08008 h -1.91992 z m -238.72071,3.19922 h 2.89844 c 5.28272,0 7.29838,1.0807 7.57617,4.06445 0.17318,1.85889 -0.74438,3.46175 -2.48047,4.33398 -0.85345,0.42887 -1.9164,0.56021 -4.55273,0.56055 h -3.44141 v -4.48047 z m 180.48047,0 2.80078,0.0156 c 5.10607,0.0256 7.43946,1.4972 7.43946,4.69336 0,2.17848 -1.15544,3.92071 -3.15821,4.75977 v -0.002 c -0.66973,0.28048 -2.21764,0.45313 -4.08008,0.45313 h -3.00195 v -4.96094 z m -20.41406,1.60742 c 0.0624,0.003 0.12691,0.16782 0.2539,0.49609 0.14106,0.36458 1.20785,3.11424 2.36915,6.11133 1.16129,2.99709 2.11132,5.54406 2.11132,5.6582 0,0.11452 -2.15749,0.20703 -4.79492,0.20703 h -4.79492 l 0.66211,-1.67968 c 0.60639,-1.53819 3.39081,-8.80854 3.95312,-10.32032 0.11783,-0.31704 0.17781,-0.47551 0.24024,-0.47265 z m 62.40039,0 c 0.0624,0.003 0.12691,0.16782 0.25391,0.49609 0.14105,0.36458 1.20784,3.11424 2.36914,6.11133 1.16129,2.99709 2.11132,5.54406 2.11132,5.6582 0,0.11452 -2.15749,0.20703 -4.79492,0.20703 h -4.79687 l 0.66211,-1.67968 c 0.60638,-1.53819 3.39276,-8.80854 3.95508,-10.32032 0.11782,-0.31704 0.1778,-0.47551 0.24023,-0.47265 z m -192.16992,0.37695 c 0.25404,-0.024 0.89416,1.38931 2.3164,5.05469 1.19498,3.07967 2.27687,5.92433 2.40235,6.32031 l 0.22851,0.7207 h -4.81445 -4.8125 l 0.27539,-0.7207 c 0.15141,-0.39598 1.13144,-2.9517 2.17969,-5.67969 1.04825,-2.72798 2.0113,-5.24773 2.13867,-5.59961 0.0216,-0.0598 0.0496,-0.0923 0.0859,-0.0957 z m -30.29688,10.17578 h 3.85157 c 4.2122,0 5.37953,0.30331 6.70898,1.74414 0.64543,0.69952 0.80078,1.19788 0.80078,2.57813 0,1.99661 -0.72164,3.2082 -2.42383,4.07617 -0.86763,0.44247 -1.91799,0.56021 -5.01758,0.56055 h -3.91992 v -4.48047 z m 76.60742,20.48438 c -8.87263,0 -14.69032,7.26387 -13.32421,16.63672 0.81074,5.56263 3.68643,9.11688 8.87304,10.96484 1.25352,0.44606 2.37441,0.55102 5.125,0.47656 3.02631,-0.0819 3.77993,-0.2173 5.375,-0.95703 5.0397,-2.33726 7.70445,-6.80462 7.68555,-12.88086 -0.005,-1.584 -0.18697,-3.52831 -0.4043,-4.32031 -1.73234,-6.30784 -6.58562,-9.91992 -13.33008,-9.91992 z m 77.47266,0.16015 c -3.69536,0 -4.99641,0.49936 -6.96094,2.67383 -2.47086,2.73649 -2.46428,7.14088 0.0176,9.75586 1.0571,1.11379 2.4204,1.81921 5.34375,2.76953 5.37842,1.74841 6.7889,3.41952 5.48047,6.49024 -1.48403,3.48283 -5.76343,4.0673 -9.81641,1.33984 -0.90686,-0.61024 -1.84398,-1.10937 -2.08398,-1.10937 -0.23996,0 -0.80934,0.53923 -1.26367,1.19922 l -0.82617,1.20117 1.32226,1.1875 c 0.72714,0.65336 2.06575,1.47266 2.97461,1.82226 v 0.002 c 2.48107,0.95387 6.87496,0.91121 9.01172,-0.0859 3.29072,-1.53566 5.24317,-5.04872 4.86133,-8.74805 -0.33313,-3.22802 -1.93779,-4.77086 -6.72071,-6.45898 -5.15508,-1.81954 -6.30078,-2.70394 -6.30078,-4.86719 0,-2.25528 2.07137,-3.85742 4.98633,-3.85742 1.34759,0 2.14477,0.22801 3.60938,1.0332 1.03385,0.56848 2.08333,0.95462 2.33203,0.85938 0.24865,-0.0954 0.73545,-0.70193 1.08203,-1.34766 l 0.63086,-1.17383 -0.80078,-0.62109 c -2.10494,-1.63299 -3.54404,-2.06446 -6.87891,-2.06446 z m -118.24023,0.11329 v 13.80273 13.80273 l 7.28125,-0.10156 c 7.1622,-0.1 7.30921,-0.11581 9.14648,-0.97656 5.0575,-2.36935 7.58335,-6.54687 7.56445,-12.51758 -0.0143,-4.77237 -1.23716,-7.85771 -4.20507,-10.60547 -3.09876,-2.86892 -4.23971,-3.1649 -12.66602,-3.29492 z m -28.79883,0.01 v 13.77734 13.77735 h 1.75976 1.75977 v -10.27344 -10.27539 l 7.88281,10.27539 7.88281,10.27344 h 1.55664 1.55665 V 541.6582 527.89844 h -1.75391 -1.75586 l -0.084,10.26562 -0.0859,10.26563 -7.83985,-10.18555 -7.83984,-10.18555 -1.51953,-0.0976 z m 88,0 v 13.77734 13.7754 h 1.91406 1.91602 l 0.084,-10.12305 0.0859,-10.12305 7.78125,10.12305 7.78125,10.12305 h 1.57812 1.57813 v -13.75977 -13.75977 h -1.75586 -1.75391 l -0.0859,10.29297 -0.084,10.29493 -7.85937,-10.21485 -7.86133,-10.21289 -1.65821,-0.0977 z m 95.22656,0.006 -2.07812,0.0937 -2.07618,0.0918 -5.37695,13.43554 c -2.95695,7.38917 -5.375,13.54476 -5.375,13.67969 0,0.42081 3.73633,0.27907 4.0625,-0.1543 0.1657,-0.22 0.86702,-1.87571 1.55859,-3.67968 l 1.25782,-3.28125 h 5.97265 5.97461 l 1.39844,3.59961 1.39844,3.60156 2.1582,0.0937 2.1582,0.0957 -0.43359,-1.05469 c -0.23868,-0.58015 -2.72175,-6.78586 -5.51758,-13.78906 z m -66.10742,0.0254 v 13.75977 13.75976 h 8.64062 8.64063 v -1.59961 -1.59961 h -6.7207 -6.72071 v -4.48046 -4.47852 h 5.44141 5.43945 v -1.60156 -1.59961 h -5.43945 -5.44141 v -4.48047 -4.47852 h 6.72071 6.7207 v -1.60156 -1.59961 h -8.64063 z m 43.20117,0 v 13.75977 13.75976 h 1.91992 1.91992 v -13.7605 -13.75977 h -1.91992 z m -171.52148,0.006 v 13.75977 13.75976 h 2.08007 2.08008 v -13.75976 -13.75977 h -2.08008 z m 44.16015,3.12305 4.40039,0.13281 c 3.54426,0.10654 4.68091,0.25976 5.84375,0.78516 3.30093,1.4914 5.15963,4.63862 5.37696,9.10742 0.23716,4.87389 -1.27044,8.05847 -4.74024,10.01562 -1.70351,0.96102 -1.90669,0.99498 -6.32031,1.10157 l -4.56055,0.11132 v -10.62695 z m 36.22266,0.0937 c 3.51185,-0.17887 7.08489,1.51839 8.73437,4.77343 1.60022,3.15803 1.72726,7.64138 0.3125,11.02735 -0.65888,1.57693 -2.55421,3.60746 -4.12695,4.42187 -0.93154,0.48235 -2.07514,0.71052 -4.02148,0.80274 -2.5468,0.12053 -2.84778,0.064 -4.72461,-0.88477 -2.16318,-1.09345 -3.16643,-2.17979 -4.30078,-4.65625 -0.60771,-1.32646 -0.72557,-2.12486 -0.72266,-4.9414 0.004,-4.09675 0.69264,-5.94482 3.02344,-8.125 1.63413,-1.52854 3.71906,-2.31065 5.82617,-2.41797 z M 667,533.07812 c 0.25484,-0.029 0.89086,1.37272 2.32031,5.05665 1.19498,3.07967 2.27491,5.92429 2.40039,6.32031 l 0.22852,0.7207 h -4.80664 -4.8086 l 0.42969,-1.20117 c 0.23622,-0.66002 1.21377,-3.21566 2.17188,-5.67969 0.95818,-2.46399 1.84768,-4.76764 1.97656,-5.11914 0.0221,-0.0601 0.0515,-0.0935 0.0879,-0.0977 z"
         transform="scale(0.26458333)" />
      <path
         id="path40"
         style="fill:#00a39d;fill-opacity:1;stroke-width:0.32"
         d="m 419.42578,457.17969 v 49.27929 49.28125 h 11.6875 11.6875 l -0.0937,-38.96093 c -0.10507,-43.91373 0.1046,-40.29832 -2.65234,-46 -2.52873,-5.2297 -5.59923,-8.30444 -10.86914,-10.88672 -2.66041,-1.30364 -7.33473,-2.70716 -9.03907,-2.71094 z m -44.08984,0.98437 c -1.54493,0.0254 -3.07108,0.1277 -4.5586,0.3125 -13.86811,1.72298 -24.1083,10.19642 -26.89453,22.25391 -0.6165,2.66793 -0.6807,3.62388 -0.52343,7.90234 0.19104,5.1978 0.61255,7.29438 2.13867,10.66016 2.29205,5.055 5.97434,8.84624 11.10937,11.43945 2.94094,1.48521 6.45037,2.75677 13.49414,4.88672 3.79006,1.14607 7.92098,2.58643 9.18164,3.20117 5.11563,2.49449 7.12147,6.03756 6.22266,10.99414 -0.49017,2.70323 -1.25404,4.12503 -3.08008,5.73243 -2.18041,1.91924 -5.04376,2.75144 -9.40039,2.73632 -5.33905,-0.0201 -8.63136,-1.12993 -15.48633,-5.2207 -4.0386,-2.40998 -5.1293,-2.77761 -7.4375,-2.51758 -2.25511,0.25421 -3.42044,1.4658 -7.29492,7.58985 l -3.5,5.53125 1.41992,1.24414 c 6.30416,5.51833 16.86445,9.97123 26.37891,11.12304 3.65731,0.44274 10.9651,0.14929 14.40039,-0.57812 12.61773,-2.67183 21.25964,-10.61476 24.40625,-22.43164 0.7022,-2.63777 0.81339,-3.74839 0.83984,-8.32422 0.0343,-6.1008 -0.31278,-7.8563 -2.39843,-12.11133 -0.92145,-1.87982 -1.97954,-3.37629 -3.56641,-5.04687 -4.26418,-4.48906 -8.41057,-6.62663 -20.77344,-10.70508 -8.11562,-2.67734 -10.05819,-3.51205 -12.63086,-5.4336 -2.14744,-1.60391 -2.9983,-3.33305 -2.99414,-6.08398 0.004,-2.66699 0.98985,-4.82942 3.00977,-6.60742 2.02896,-1.78594 3.82611,-2.36874 7.91406,-2.56641 4.917,-0.23777 7.12776,0.33565 13.32422,3.45508 8.32059,4.18877 9.06019,3.89775 14.12695,-5.55273 l 2.95313,-5.50782 -1.35742,-1.20898 c -6.43781,-5.73601 -18.20894,-9.34402 -29.02344,-9.16602 z m -116.55078,0.93555 v 48.16016 48.16015 l 18.96093,-0.004 c 25.38867,-0.006 29.74566,-0.35565 36.59766,-2.93555 4.85793,-1.8291 7.59219,-3.57481 11.19922,-7.14453 2.91898,-2.88881 3.39909,-3.53588 4.89648,-6.60156 3.59758,-7.36559 3.88633,-15.90625 0.75391,-22.29883 -2.15167,-4.3911 -6.76366,-8.00752 -12.58203,-9.86524 -1.56783,-0.5006 -2.84858,-0.98225 -2.84571,-1.07031 0.003,-0.088 1.21894,-0.72222 2.70118,-1.4082 4.75039,-2.19855 8.79496,-5.97275 10.75,-10.03321 3.41822,-7.09939 2.042,-18.2842 -3.00782,-24.44336 -4.8198,-5.87863 -13.48937,-9.29196 -25.8457,-10.17773 -2.53934,-0.18217 -12.93366,-0.33236 -23.09766,-0.33398 z m 22.7207,16.88672 8.7207,0.16406 c 9.1223,0.17042 10.92834,0.4044 13.56446,1.76367 1.8445,0.95105 3.55787,3.06903 4.1875,5.17774 0.62234,2.08437 0.69599,6.89273 0.13671,8.85937 -1.04553,3.67646 -4.21567,6.16451 -8.92382,7.00391 -1.64073,0.2925 -5.06902,0.44556 -10.08594,0.45312 l -7.59961,0.0117 v -11.7168 z m 0,38.74805 10.48047,0.12109 c 10.02997,0.11716 10.56843,0.1558 12.53711,0.87305 2.92488,1.06563 5.21336,3.3351 5.95508,5.9082 0.83815,2.90766 0.54399,7.84777 -0.60743,10.20117 -1.46008,2.98428 -4.08994,4.90712 -7.95507,5.81836 v 0.002 c -1.52796,0.36034 -4.21756,0.47493 -11.21094,0.47852 l -9.19922,0.004 V 526.4375 Z"
         transform="scale(0.26458333)" />
    </g>
  </g>
</svg>
