<?xml version="1.0" encoding="UTF-8" standalone="no"?>
<!-- Generator: Adobe Illustrator 23.0.1, SVG Export Plug-In . SVG Version: 6.00 Build 0)  -->

<svg
   xmlns:dc="http://purl.org/dc/elements/1.1/"
   xmlns:cc="http://creativecommons.org/ns#"
   xmlns:rdf="http://www.w3.org/1999/02/22-rdf-syntax-ns#"
   xmlns:svg="http://www.w3.org/2000/svg"
   xmlns="http://www.w3.org/2000/svg"
   xmlns:xlink="http://www.w3.org/1999/xlink"
   xmlns:sodipodi="http://sodipodi.sourceforge.net/DTD/sodipodi-0.dtd"
   xmlns:inkscape="http://www.inkscape.org/namespaces/inkscape"
   version="1.1"
   id="Layer_1"
   x="0px"
   y="0px"
   viewBox="0 0 622.70001 622.70001"
   xml:space="preserve"
   sodipodi:docname="Logo_brimo_2021.svg"
   width="622.70001"
   height="622.70001"
   inkscape:version="0.92.5 (2060ec1f9f, 2020-04-08)"><metadata
   id="metadata81"><rdf:RDF><cc:Work
       rdf:about=""><dc:format>image/svg+xml</dc:format><dc:type
         rdf:resource="http://purl.org/dc/dcmitype/StillImage" /><dc:title></dc:title></cc:Work></rdf:RDF></metadata><defs
   id="defs79"><clipPath
     id="SVGID_4_-6"><use
       xlink:href="#SVGID_3_"
       style="overflow:visible"
       id="use13-2"
       x="0"
       y="0"
       width="100%"
       height="100%" /></clipPath><clipPath
     id="clipPath908"><use
       xlink:href="#SVGID_3_"
       style="overflow:visible"
       id="use906"
       x="0"
       y="0"
       width="100%"
       height="100%" /></clipPath><clipPath
     id="clipPath912"><use
       xlink:href="#SVGID_3_"
       style="overflow:visible"
       id="use910"
       x="0"
       y="0"
       width="100%"
       height="100%" /></clipPath><clipPath
     id="clipPath916"><use
       xlink:href="#SVGID_3_"
       style="overflow:visible"
       id="use914"
       x="0"
       y="0"
       width="100%"
       height="100%" /></clipPath><clipPath
     id="clipPath920"><use
       xlink:href="#SVGID_3_"
       style="overflow:visible"
       id="use918"
       x="0"
       y="0"
       width="100%"
       height="100%" /></clipPath><clipPath
     id="clipPath924"><use
       xlink:href="#SVGID_3_"
       style="overflow:visible"
       id="use922"
       x="0"
       y="0"
       width="100%"
       height="100%" /></clipPath></defs><sodipodi:namedview
   pagecolor="#ffffff"
   bordercolor="#666666"
   borderopacity="1"
   objecttolerance="10"
   gridtolerance="10"
   guidetolerance="10"
   inkscape:pageopacity="0"
   inkscape:pageshadow="2"
   inkscape:window-width="1920"
   inkscape:window-height="1027"
   id="namedview77"
   showgrid="false"
   inkscape:zoom="0.6675088"
   inkscape:cx="501.677"
   inkscape:cy="358.78034"
   inkscape:window-x="-8"
   inkscape:window-y="-8"
   inkscape:window-maximized="1"
   inkscape:current-layer="g72" />
<style
   type="text/css"
   id="style2">
	.st0{clip-path:url(#SVGID_2_);}
	.st1{opacity:0.5;clip-path:url(#SVGID_4_);}
	.st2{clip-path:url(#SVGID_6_);}
	.st3{opacity:0.75;clip-path:url(#SVGID_4_);}
	.st4{clip-path:url(#SVGID_10_);}
	.st5{clip-path:url(#SVGID_4_);fill:#00539A;}
	.st6{clip-path:url(#SVGID_4_);fill:#FFFFFF;}
	.st7{clip-path:url(#SVGID_4_);fill:#F16F24;}
</style>
<g
   id="g74"
   transform="translate(-148.56903,-93.901287)">
	<defs
   id="defs5">
		<rect
   id="SVGID_1_"
   width="1000"
   height="1000"
   x="0"
   y="0" />
	</defs>
	<clipPath
   id="SVGID_2_">
		<use
   xlink:href="#SVGID_1_"
   style="overflow:visible"
   id="use7"
   x="0"
   y="0"
   width="100%"
   height="100%" />
	</clipPath>
	<g
   class="st0"
   clip-path="url(#SVGID_2_)"
   id="g72"
   transform="translate(-94.380773,-95.878886)">
		<defs
   id="defs11">
			<rect
   id="SVGID_3_"
   width="1000"
   height="1000"
   x="0"
   y="0" />
		</defs>
		<clipPath
   id="SVGID_4_">
			<use
   xlink:href="#SVGID_3_"
   style="overflow:visible"
   id="use13"
   x="0"
   y="0"
   width="100%"
   height="100%" />
		</clipPath>
		
		
		
		
		
		
		
		
	<path
   class="st5"
   d="M 691.6,188.65 H 308.4 c -66.14,0 -119.75,53.61 -119.75,119.75 v 383.2 c 0,66.14 53.61,119.75 119.75,119.75 h 383.2 c 66.14,0 119.75,-53.61 119.75,-119.75 V 308.4 c 0,-66.13 -53.62,-119.75 -119.75,-119.75"
   clip-path="url(#SVGID_4_)"
   id="path60"
   inkscape:connector-curvature="0"
   style="fill:#00539a"
   transform="translate(54.299805,1.1301731)" /><polygon
   class="st6"
   points="708.14,323.55 708.08,521.92 654.87,521.92 654.94,323.5 "
   clip-path="url(#SVGID_4_)"
   id="polygon62"
   style="fill:#ffffff"
   transform="translate(54.299805,1.1301731)" /><path
   class="st6"
   d="m 415.31,418.09 c 15.3,-6.09 34.13,-14.07 33.52,-45.31 -0.65,-35.14 -32.2,-49.39 -57.48,-49.41 h -99.42 l -0.07,198.38 91.65,0.04 c 3.9,-0.04 11.81,-0.92 23.77,-2.72 25.79,-3.84 47.54,-26.77 47.44,-53.73 -0.11,-26.63 -18.68,-41.49 -39.41,-47.25 M 345.7,359.06 h 23.45 c 10.91,0 26.38,0.97 27.36,21.14 0.69,14.88 -16.93,21.04 -28,21.02 l -23.03,0.02 z m 26.82,124.34 h -27.06 v -46.92 h 26.95 c 13.19,0.01 29.78,5.58 30.01,22 0.31,19.9 -15.99,24.97 -29.9,24.92"
   clip-path="url(#SVGID_4_)"
   id="path64"
   inkscape:connector-curvature="0"
   style="fill:#ffffff"
   transform="translate(54.299805,1.1301731)" /><path
   class="st6"
   d="m 590.62,420.52 c 25.67,-6.02 38.13,-24.56 36.78,-48.38 -2.32,-40.74 -24.35,-48.64 -63.92,-48.64 l -96.69,-0.06 -0.04,198.4 54.26,0.04 v -80.52 c 8.2,-0.04 21.15,-0.45 27.63,4.35 18.17,13.54 27.26,56.75 37.19,76.17 h 51.64 C 630.39,507.3 612,428.12 590.62,420.52 m -41.11,-16.68 -28.48,-0.03 0.04,-45.61 h 29.48 c 14.32,0 24.92,11.23 24.92,24.03 0,14.49 -11.55,21.61 -25.96,21.61"
   clip-path="url(#SVGID_4_)"
   id="path66"
   inkscape:connector-curvature="0"
   style="fill:#ffffff"
   transform="translate(54.299805,1.1301731)" /><path
   class="st7"
   d="m 663.05,555.19 c -34.53,0 -62.51,27.99 -62.51,62.51 0,34.52 27.99,62.51 62.51,62.51 34.52,0 62.51,-27.99 62.51,-62.51 0,-34.52 -27.98,-62.51 -62.51,-62.51 m 0,91.81 c -16.18,0 -29.3,-13.12 -29.3,-29.3 0,-16.18 13.12,-29.3 29.3,-29.3 16.18,0 29.3,13.12 29.3,29.3 0,16.18 -13.12,29.3 -29.3,29.3"
   clip-path="url(#SVGID_4_)"
   id="path68"
   inkscape:connector-curvature="0"
   style="fill:#f16f24"
   transform="translate(54.299805,1.1301731)" /><path
   class="st7"
   d="m 585.75,617.66 c -0.02,-34.51 -28,-62.48 -62.51,-62.48 -18.15,0 -34.48,7.74 -45.9,20.09 -11.42,-12.35 -27.76,-20.09 -45.9,-20.09 -34.51,0 -62.49,27.97 -62.51,62.48 v 0 58.96 h 33.22 V 617.7 c 0,-16.18 13.12,-29.3 29.3,-29.3 16.18,0 29.3,13.12 29.3,29.3 v 58.92 h 33.22 V 617.7 c 0,-16.18 13.12,-29.3 29.29,-29.3 16.18,0 29.3,13.12 29.3,29.3 v 58.92 h 33.22 z"
   clip-path="url(#SVGID_4_)"
   id="path70"
   inkscape:connector-curvature="0"
   style="fill:#f16f24"
   transform="translate(54.299805,1.1301731)" /></g>
</g>
</svg>